<?xml version="1.0" encoding="UTF-8"?> <svg xmlns="http://www.w3.org/2000/svg" xmlns:xlink="http://www.w3.org/1999/xlink" width="59px" height="82px" viewBox="0 0 59 82" version="1.1"><title>bolt</title><g id="Page-1" stroke="none" stroke-width="1" fill="none" fill-rule="evenodd"><g id="flash-splash-page-v1-video" transform="translate(-515.000000, -257.000000)" fill="#C8FF00"><g id="bolt" transform="translate(515.000000, 257.000000)"><path d="M58.7352132,2.36870896 C58.5959931,2.54955351 58.4470032,2.72212412 58.2894646,2.88878478 L37.2134924,26.0735285 C37.2134924,26.0735285 36.8226991,26.4742232 36.6651605,26.6917095 C35.8957862,27.7354071 36.6651605,29.0013189 38.15506,29.0793303 L38.8450545,29.0793303 L48.0409098,29.0793303 L48.729683,29.0793303 C50.1438664,29.2223512 50.8729401,30.4776251 50.1292116,31.483499 C49.9557971,31.7187151 49.5356942,32.1548696 49.5356942,32.1548696 L33.9979961,49.1057954 C33.8074844,49.3031878 33.6291849,49.5124001 33.4667614,49.7334323 C32.787758,50.7487622 33.5730084,51.9461185 34.9871917,52.0241299 L42.0153653,52.0241299 C42.7652,51.9780323 43.4735129,52.3609972 43.8240056,53.005182 C44.1207643,53.6056332 43.932695,54.3242834 43.378257,54.7178863 C43.2414793,54.8396313 42.9483844,55.0807573 42.9483844,55.0807573 L9.52456445,81.3055806 C9.52456445,81.3055806 9.09835549,81.6790896 8.86021581,81.8351123 C8.51338674,82.0549626 8.06519565,82.0549626 7.71958781,81.8351123 C7.40206823,81.6719976 7.2579632,81.3091266 7.38008611,80.9817152 C7.46068723,80.761865 7.68905708,80.3304384 7.68905708,80.3304384 L17.5907828,60.5781952 L17.8814353,60.0037478 C18.5433415,58.7141961 17.8814353,57.610217 16.4061906,57.4341004 L15.838319,57.4341004 L3.04716518,57.4341004 C2.76750371,57.4341004 2.48539978,57.4199165 2.20695954,57.3903668 C0.985730415,57.1977023 0.342142667,56.2083763 0.802546047,55.247418 C0.90879298,55.0311137 1.17257847,54.6138711 1.17257847,54.6138711 L13.4605859,34.6760553 C13.4605859,34.6760553 13.6034697,34.4502951 13.6694161,34.3320961 C14.3374284,33.1560155 13.5277535,32.0283966 11.9755713,31.983481 L6.13687486,31.983481 L2.62217744,31.983481 L1.94928019,31.983481 C0.91001421,31.983481 0.171170589,31.4492213 0.00874711588,30.6395578 C-0.0339959035,30.2258611 0.0807996342,29.8133464 0.333594063,29.4776611 L4.07299764,23.1008223 L16.3512353,2.14294878 L16.6553213,1.65124073 C17.2842543,0.553171554 18.34306,0.02363981 19.7816679,0.02363981 L56.612717,0.02363981 L56.612717,0 C56.9412277,0.002363981 57.2697383,0.0295497625 57.5945852,0.0780113731 C58.8316903,0.356961131 59.362925,1.44675637 58.7352132,2.36870896" id="Fill-1"></path></g></g></g></svg> 