<svg id="Capa_1" data-name="Capa 1" xmlns="http://www.w3.org/2000/svg" xmlns:xlink="http://www.w3.org/1999/xlink" viewBox="0 0 387.34 380.87"><defs><style>.cls-1{fill:url(#Degradado_sin_nombre_2);}</style><linearGradient id="Degradado_sin_nombre_2" x1="284.37" y1="82.39" x2="282.76" y2="493.07" gradientUnits="userSpaceOnUse"><stop offset="0" stop-color="#9980FA"/><stop offset="1" stop-color="#54a0ff"/></linearGradient></defs><path class="cls-1" d="M476.73,347.42l-17.66,70.74a13.43,13.43,0,0,1-22.37,6.41l-4.9-4.74a5.19,5.19,0,0,0-7.36.1A165.59,165.59,0,0,1,366.67,459q-36.43,14.89-80.07,14.9-55.83,0-100.78-24.74-42-23.12-67-62.42c-1.2-1.87-2.35-3.75-3.49-5.68Q89.8,337.73,89.79,283.45t25.55-97.6q25.51-43.36,70.74-68.08T287.15,93q43.62,0,79.79,14.62a163.27,163.27,0,0,1,57,38.26,5.19,5.19,0,0,0,7.36.08l3.75-3.67a13.43,13.43,0,0,1,22.4,6.26l18.11,70.64a13.45,13.45,0,0,1-16.65,16.28l-70.21-19.64a13.44,13.44,0,0,1-5.78-22.55l6.33-6.18a5.28,5.28,0,0,0,0-7.55q-40.76-39.2-99.9-39.21-41.5,0-75,18.61a135.15,135.15,0,0,0-52.39,51.34Q143,243,143,283.45t18.87,73.16A138.88,138.88,0,0,0,174,374.21a136.26,136.26,0,0,0,40.26,33.71q33.53,18.65,75,18.64,58.91,0,100.2-40.07a5.25,5.25,0,0,0,0-7.54l-5.23-5.05a13.42,13.42,0,0,1,5.64-22.56L460,331.24A13.45,13.45,0,0,1,476.73,347.42Z" transform="translate(-89.79 -93.03)"/></svg>